<svg width="449" height="749" viewBox="0 0 449 749" fill="none" xmlns="http://www.w3.org/2000/svg">
<path d="M275.953 745.201C275.953 745.201 429.084 712.771 435.39 626.127C441.697 539.484 203.792 608.941 299.033 428.127C394.274 247.314 480.35 242.838 435.39 130.127C390.431 17.4166 269.704 -41.7519 129.453 3.00177C-10.7979 47.7554 -24 335.127 -24 335.127" stroke="#D0D5F6" stroke-width="2"/>
<path d="M233.964 745.201C233.964 745.201 354.088 716.72 359.036 640.627C363.983 564.533 177.357 625.533 252.069 466.736C326.781 307.94 394.305 304.009 359.036 205.022C323.767 106.036 229.062 54.0722 119.041 93.3763C9.01994 132.681 -1.33658 385.06 -1.33658 385.06" stroke="#D0D5F6" stroke-width="2"/>
<path d="M197.729 747.201C197.729 747.201 288.634 722.36 292.378 655.993C296.122 589.626 154.891 642.829 211.43 504.329C267.969 365.83 319.068 362.402 292.378 276.068C265.688 189.734 194.019 144.412 110.76 178.692C27.5008 212.973 19.6634 433.093 19.6634 433.093" stroke="#D0D5F6" stroke-width="2"/>
</svg>
